<svg width="108" height="94" viewBox="0 0 108 94" fill="none" xmlns="http://www.w3.org/2000/svg">
<path d="M43.0556 41.0638C42.9384 42.9128 42.5528 45.0288 41.8988 47.4118C41.2488 49.7482 40.3675 52.1837 39.2547 54.7181C38.1915 57.1955 36.7953 59.6587 35.0663 62.1076C33.3413 64.51 31.4752 66.4896 29.4678 68.0462L33.8309 86.9215L24.6338 83.5788L22.4082 71.5892C22.3172 71.6102 22.1808 71.6417 21.9989 71.6837C20.8167 71.9566 19.6653 72.1313 18.5448 72.2078L14.4106 91.2001C14.357 91.3036 14.2827 91.3891 14.1876 91.4565C14.0926 91.524 14.0037 91.5218 13.9209 91.4498L7.96104 87.7697C7.87823 87.6977 7.86363 87.61 7.91723 87.5065L19.1183 35.8631C19.1719 35.7596 19.2462 35.6741 19.3412 35.6066C19.8203 35.2227 20.5576 34.6881 21.5532 34.0028C23.6393 32.5646 25.6824 31.3641 27.6823 30.4013C29.5914 29.4595 31.3644 28.7997 33.0013 28.4218C34.3199 28.1173 35.5273 28.0664 36.6234 28.2688C37.7195 28.4712 38.6836 28.9091 39.5157 29.5825C40.3974 30.1988 41.1244 31.0559 41.6966 32.1536C42.2729 33.2049 42.6718 34.5021 42.8932 36.0452C43.1187 37.5418 43.1728 39.2147 43.0556 41.0638ZM27.8576 61.2438C29.9592 59.1188 31.7768 56.4217 33.3103 53.1525C34.8438 49.8832 35.7383 46.5338 35.9938 43.1041C36.1476 40.8366 35.8597 39.0355 35.1299 37.7008C34.4002 36.3662 33.1714 35.8983 31.4435 36.2972C29.8521 36.6646 27.9328 37.7226 25.6859 39.4712L20.1098 65.014C20.5564 65.002 20.8933 64.9697 21.1207 64.9172C21.5673 64.9053 22.0179 64.8468 22.4726 64.7418C24.2005 64.3429 25.9955 63.1769 27.8576 61.2438Z" fill="white"/>
<path d="M76.5955 14.0474C76.6865 14.0264 76.7506 14.0571 76.7879 14.1396C76.8748 14.1651 76.8894 14.2528 76.8317 14.4028L73.0609 23.1308C73.0527 23.2237 73.0012 23.304 72.9062 23.3714L58.0295 29.949L53.542 49.1595L62.5114 45.1756C62.6064 45.1081 62.6953 45.1104 62.7781 45.1824C62.8609 45.2543 62.8527 45.3473 62.7537 45.4613L58.9767 54.259C58.9686 54.352 58.919 54.409 58.8281 54.43L51.5261 57.6872L48.9375 68.9436L47.5627 74.727L46.9338 77.3319C46.9257 77.4248 46.8741 77.5051 46.7791 77.5726C46.6841 77.64 46.5952 77.6378 46.5124 77.5658L46.1337 77.3116L44.5444 76.3803L40.9374 74.0702L40.6207 73.87C40.5379 73.798 40.5233 73.7102 40.5769 73.6068L43.4556 61.3269L45.4094 52.7452L49.8907 33.6044L51.9066 25.0766L59.9771 21.437L76.5955 14.0474Z" fill="white"/>
<path d="M105.072 17.9036C104.946 19.3448 104.744 20.8947 104.465 22.5533C104.236 24.1549 103.848 26.0437 103.301 28.2197C102.804 30.3387 102.176 32.4195 101.418 34.462C100.71 36.4475 99.7724 38.5088 98.6053 40.6458C97.4422 42.7363 96.1424 44.6079 94.7058 46.2605C93.3147 47.9026 91.6029 49.391 89.5703 50.7257C87.5874 52.0034 85.4364 52.91 83.1174 53.4453C81.6168 53.7918 80.1448 53.8128 78.7012 53.5083L75.4725 68.2604C75.4189 68.3639 75.3446 68.4493 75.2496 68.5168C75.1546 68.5843 75.0657 68.5821 74.9829 68.5101L69.023 64.83C68.9361 64.8045 68.9215 64.7167 68.9792 64.5668L80.1802 12.9234C80.2338 12.8199 80.3082 12.7344 80.4032 12.6669C82.8937 10.6799 85.6741 8.94479 88.7443 7.46163C90.6988 6.50934 92.4718 5.84949 94.0633 5.48207C97.3826 4.71573 100.121 5.49554 102.279 7.82149C104.437 10.1474 105.368 13.5081 105.072 17.9036ZM84.043 45.9209C85.1343 45.6689 86.2561 45.0683 87.4084 44.119C88.6102 43.1127 89.7723 41.7968 90.8947 40.1712C92.0626 38.5351 93.1123 36.7212 94.0439 34.7297C95.0251 32.6812 95.8508 30.3725 96.5211 27.8036C97.1913 25.2347 97.6196 22.6305 97.806 19.9911C97.9476 17.8631 97.5419 16.1348 96.5889 14.8061C95.64 13.4309 94.2788 12.9481 92.5055 13.3575C90.9595 13.7144 89.0403 14.7724 86.7479 16.5315L80.2906 46.0356C81.4281 46.274 82.6789 46.2358 84.043 45.9209Z" fill="white"/>
</svg>
