<svg width="159" height="198" viewBox="0 0 159 198" fill="none" xmlns="http://www.w3.org/2000/svg">
<path d="M35.6337 35.1032C35.5151 36.9476 35.1356 39.0847 34.495 41.5146C33.8586 43.898 32.9974 46.4039 31.9116 49.0322C30.8739 51.5988 29.5135 54.1864 27.8302 56.795C26.151 59.3571 24.336 61.5151 22.3852 63.2689L26.5666 81.5103L17.6562 79.1678L15.5295 67.5232C15.4413 67.5536 15.3089 67.5992 15.1324 67.66C13.9852 68.055 12.8682 68.3494 11.7813 68.5433L7.7218 87.7962C7.66954 87.9044 7.59725 87.9969 7.50494 88.0738C7.41262 88.1507 7.3264 88.1578 7.24629 88.0952L1.47624 85.0772C1.39613 85.0146 1.3822 84.9292 1.43446 84.821L12.4335 32.4733C12.4858 32.3651 12.5581 32.2726 12.6504 32.1957C13.116 31.7649 13.8325 31.1575 14.7998 30.3735C16.8267 28.7287 18.8111 27.324 20.7532 26.1593C22.6071 25.025 24.3282 24.1844 25.9167 23.6374C27.1963 23.1968 28.3673 23.0191 29.4297 23.1041C30.4922 23.1892 31.426 23.5214 32.2312 24.1009C33.0846 24.6186 33.7873 25.3911 34.3394 26.4184C34.8955 27.3993 35.2789 28.6425 35.4895 30.148C35.7042 31.6071 35.7523 33.2588 35.6337 35.1032ZM20.8416 56.699C22.8854 54.372 24.6552 51.5082 26.1509 48.1075C27.6467 44.7068 28.5231 41.294 28.7799 37.869C28.9351 35.6062 28.6606 33.8521 27.9565 32.6066C27.2523 31.3611 26.0619 31.0271 24.3852 31.6044C22.8408 32.1362 20.9768 33.3867 18.7932 35.356L13.318 61.2509C13.7511 61.1919 14.078 61.1245 14.2986 61.0485C14.7317 60.9896 15.1689 60.8841 15.6101 60.7322C17.2869 60.1549 19.0307 58.8104 20.8416 56.699ZM36.7564 48.9195C39.1747 45.2463 41.5128 43.2238 43.7707 42.8522C46.0285 42.4805 47.5324 43.879 48.2823 47.0475C49.0803 50.1544 48.905 54.1149 47.7563 58.9291C47.0106 62.0715 45.9364 65.0566 44.5335 67.8842C43.1789 70.6502 41.6744 72.9266 40.0203 74.7136C38.4102 76.4854 36.8693 77.4668 35.3976 77.658C33.1397 78.0296 31.6118 76.662 30.8137 73.5552C30.0639 70.3866 30.2633 66.3953 31.412 61.5811C32.5607 56.7668 34.3422 52.5463 36.7564 48.9195ZM41.7648 59.91C42.4901 57 42.8761 54.5451 42.9227 52.5451C43.0134 50.53 42.7539 49.5823 42.1443 49.702C41.7112 49.761 41.2154 50.2924 40.6568 51.2963C40.0982 52.3003 39.5112 53.6296 38.8956 55.2844C38.3243 56.924 37.8048 58.7035 37.3373 60.6229C36.6561 63.5177 36.2701 65.9727 36.1794 67.9878C36.1328 69.9877 36.4144 70.9278 37.024 70.8081C37.4129 70.7644 37.8867 70.2405 38.4453 69.2366C39.048 68.2175 39.635 66.8881 40.2064 65.2485C40.7778 63.609 41.2973 61.8294 41.7648 59.91ZM65.5046 38.0739C65.7891 38.2465 65.8689 38.5571 65.7441 39.0059L64.8189 42.9767C64.7423 43.3638 64.5234 43.6646 64.1622 43.8791C63.8052 44.0471 63.5306 44.0064 63.3384 43.757C62.7463 42.6984 62.0532 42.3058 61.2589 42.5793C60.1558 42.9591 58.8731 45.8806 57.4109 51.3439C55.9927 56.7919 55.1698 60.8177 54.942 63.421C54.7712 65.3736 56.0963 65.3907 58.9175 63.4725C59.1903 63.2883 59.4269 63.2745 59.6272 63.431C59.8316 63.541 59.8995 63.743 59.8309 64.0372L58.803 68.4491C58.7304 68.7897 58.5577 69.0521 58.2848 69.2362C57.137 70.1274 55.7467 70.8541 54.1142 71.4163C52.5698 71.948 51.249 71.6363 50.1518 70.4811C49.0587 69.2794 48.6037 67.6325 48.7867 65.5405C49.0389 62.6582 49.8014 58.8336 51.0744 54.0668C52.3514 49.2535 53.8098 45.302 55.4495 42.2125C56.832 39.6173 58.494 37.9854 60.4355 37.3169C62.2004 36.7092 63.8902 36.9615 65.5046 38.0739ZM84.8951 32.0059C85.1795 32.1785 85.2152 32.5044 85.0021 32.9836L77.834 46.6788L80.4926 61.0484L80.839 62.9581C80.8309 63.0511 80.7807 63.136 80.6884 63.2129C80.6361 63.3211 80.5679 63.3671 80.4837 63.351L80.0988 63.3483L78.4146 63.5224L74.1561 63.7713C74.0678 63.8017 74.0057 63.778 73.9697 63.7002L72.6674 56.5737L68.1096 65.3798L67.5957 67.5858C67.5272 67.8799 67.3907 67.972 67.1864 67.862L66.8798 67.697L65.5875 67.0599L62.342 65.2692C62.2619 65.2066 62.2239 65.152 62.2279 65.1055L74.2686 11.8581C74.3168 11.7964 74.365 11.7347 74.4132 11.6731L81.1078 6.32444C81.2001 6.24756 81.2643 6.24801 81.3003 6.3258C81.3844 6.3419 81.4225 6.39644 81.4143 6.48942L72.2222 46.9879L76.3942 38.9233L80.7046 30.7435C80.8132 30.4807 81.0019 30.2804 81.2707 30.1428C81.5395 30.0051 81.754 29.9989 81.9143 30.1241L84.8951 32.0059Z" fill="white"/>
<path d="M69.5008 72.1992C69.591 72.175 69.6545 72.2034 69.6914 72.2843C69.7775 72.3066 69.7919 72.3936 69.7347 72.5451L65.9904 81.3797C65.9823 81.4727 65.9311 81.5545 65.8369 81.6252L51.0866 88.71L46.624 108.02L55.5171 103.73C55.6113 103.66 55.6995 103.659 55.7815 103.728C55.8635 103.797 55.8554 103.889 55.7571 104.007L52.0067 112.911C51.9986 113.004 51.9494 113.063 51.8593 113.087L44.6194 116.593L42.0449 127.906L40.6778 133.72L40.0525 136.34C40.0444 136.432 39.9932 136.514 39.899 136.585C39.8048 136.656 39.7166 136.656 39.6346 136.588L39.2594 136.348L37.685 135.476L34.1116 133.301L33.7979 133.112C33.7159 133.043 33.7015 132.957 33.7547 132.851L36.6175 120.508L38.5605 111.883L43.0171 92.6428L45.0217 84.07L53.0236 80.1554L69.5008 72.1992ZM74.1355 80.7635C74.6314 80.6307 75.0187 80.7312 75.2977 81.065C75.5807 81.3524 75.6773 81.7578 75.5874 82.2813L74.4349 87.1527C74.3654 87.4437 74.2139 87.6659 73.9804 87.8193L68.2718 91.9367C67.9932 92.1021 67.7473 92.1453 67.5341 92.0662C67.325 91.9407 67.2572 91.7091 67.3308 91.3716L69.1452 83.4627C69.2025 83.3111 69.2598 83.1596 69.3171 83.008C69.4194 82.8444 69.5197 82.704 69.618 82.5869C69.7204 82.4233 69.8432 82.2768 69.9866 82.1476C70.13 82.0184 70.2713 81.9124 70.4106 81.8297C70.5499 81.747 70.7097 81.6815 70.89 81.6332L74.1355 80.7635ZM58.7542 127.515L65.0313 100.296L72.3561 95.0644L64.2463 130.402C64.193 130.507 64.1193 130.595 64.0251 130.665C63.976 130.724 63.9104 130.719 63.8284 130.65L58.8711 127.688C58.7891 127.619 58.7502 127.561 58.7542 127.515ZM83.6877 91.8238C85.0851 91.4494 86.3064 91.3264 87.3517 91.455C88.3969 91.5835 89.182 91.9179 89.707 92.4582C90.236 92.9521 90.6134 93.4184 90.8391 93.8573C91.0689 94.2498 91.2311 94.6603 91.3257 95.089C91.3463 95.3558 91.2584 95.6064 91.0618 95.8406L87.4985 99.5875C87.3511 99.7632 87.1667 99.858 86.9454 99.8719C86.7692 99.8737 86.6441 99.7937 86.5702 99.6319C85.9053 98.1757 84.8741 97.6348 83.4767 98.0092C82.0794 98.3837 81.3014 99.4774 81.1427 101.29C81.0492 102.36 81.2549 103.53 81.7599 104.802C82.31 106.062 82.9173 107.171 83.5819 108.128C84.2466 109.085 84.8293 110.222 85.3302 111.541C85.8312 112.86 86.0267 114.146 85.9169 115.402C85.8233 116.471 85.5761 117.536 85.1751 118.597C84.8193 119.645 84.2646 120.702 83.5112 121.767C82.8029 122.819 81.8178 123.764 80.556 124.601C79.3392 125.427 77.942 126.051 76.3644 126.474C74.967 126.848 73.7272 126.931 72.645 126.721C71.612 126.453 70.8166 125.985 70.2587 125.318C69.7049 124.603 69.2967 123.986 69.034 123.467C68.7754 122.9 68.5804 122.362 68.4489 121.853C68.3872 121.551 68.4997 121.272 68.7864 121.013L73.1982 117.38C73.6242 117.038 73.9091 117.053 74.0528 117.423C74.792 119.54 75.6574 120.466 76.6491 120.2C77.4605 119.983 78.0954 119.518 78.554 118.805C79.0166 118.045 79.2866 117.224 79.3639 116.34C79.4371 115.504 79.2151 114.519 78.6979 113.386C78.2258 112.242 77.6554 111.214 76.9867 110.304C76.3671 109.335 75.813 108.121 75.3243 106.663C74.8847 105.146 74.73 103.644 74.8602 102.157C75.0676 99.7858 76.0498 97.6158 77.8068 95.6469C79.6088 93.6658 81.5692 92.3915 83.6877 91.8238ZM107.87 85.821C109.808 85.3016 111.189 85.6125 112.014 86.7535C112.884 87.8824 113.128 89.3604 112.749 91.1874L112.552 91.9209C112.487 92.1655 112.424 92.3867 112.362 92.5848C112.346 92.7707 112.305 92.986 112.24 93.2305C112.223 93.4165 112.189 93.562 112.135 93.667L112.117 93.8762C112.113 93.9227 112.109 93.9692 112.105 94.0157L111.927 94.5401L111.909 94.7493L106.275 119.14C106.206 119.431 106.066 119.514 105.857 119.388L100.9 116.426C100.818 116.357 100.802 116.294 100.851 116.235L105.663 95.1971C105.74 94.8131 105.679 94.5118 105.478 94.2933C105.326 94.0162 105.025 93.938 104.574 94.0588C103.492 94.3487 101.275 97.5532 97.9221 103.672L93.5636 122.546C93.4941 122.837 93.3548 122.92 93.1457 122.794L88.1885 119.832C88.1024 119.81 88.0634 119.752 88.0716 119.659L100.209 66.9673C100.213 66.9208 100.262 66.8622 100.356 66.7916L107.19 61.8962C107.325 61.86 107.429 61.9228 107.503 62.0846L100.595 91.9924L100.705 91.4862C100.803 91.369 100.928 91.1994 101.08 90.9772C101.231 90.755 101.528 90.3804 101.97 89.8533C102.462 89.2676 102.97 88.7456 103.494 88.2873C104.018 87.829 104.676 87.3578 105.467 86.8735C106.257 86.3892 107.058 86.0384 107.87 85.821Z" fill="white"/>
<path d="M90.7217 144.037C90.4953 145.466 90.1868 147.005 89.7961 148.655C89.4577 150.246 88.944 152.127 88.2549 154.298C87.6181 156.41 86.8571 158.49 85.9718 160.537C85.1388 162.526 84.0769 164.598 82.7859 166.753C81.5022 168.862 80.1009 170.761 78.582 172.448C77.1081 174.122 75.3327 175.657 73.2557 177.053C71.2311 178.39 69.0693 179.366 66.7704 179.982C65.2829 180.381 63.8464 180.456 62.4611 180.21L58.2555 194.909C58.1958 195.013 58.1172 195.1 58.0198 195.17C57.9223 195.241 57.8358 195.242 57.7603 195.174L52.2148 191.76C52.1319 191.738 52.124 191.652 52.191 191.502L66.8149 140.049C66.8745 139.945 66.9531 139.857 67.0506 139.787C69.6208 137.73 72.4556 135.911 75.5547 134.331C77.5282 133.316 79.3038 132.598 80.8815 132.175C84.1721 131.294 86.7856 131.961 88.7221 134.179C90.6585 136.397 91.325 139.683 90.7217 144.037ZM68.2125 172.512C69.2944 172.222 70.431 171.586 71.6223 170.605C72.866 169.566 74.0932 168.222 75.3039 166.573C76.5597 164.913 77.7131 163.081 78.7641 161.078C79.8675 159.017 80.838 156.704 81.6757 154.141C82.5134 151.577 83.1177 148.988 83.4888 146.373C83.7795 144.264 83.5081 142.572 82.6744 141.294C81.8481 139.971 80.556 139.545 78.798 140.016C77.2654 140.427 75.3187 141.544 72.9579 143.368L64.5466 172.766C65.6383 172.959 66.8603 172.874 68.2125 172.512ZM90.8557 157.904C93.5243 154.409 95.9978 152.554 98.2761 152.341C100.554 152.128 101.957 153.628 102.484 156.841C103.063 159.996 102.612 163.934 101.131 168.657C100.167 171.739 98.8876 174.642 97.2909 177.365C95.7466 180.03 94.0871 182.196 92.3123 183.863C90.5826 185.518 88.977 186.39 87.4955 186.478C85.2172 186.691 83.7884 185.22 83.209 182.065C82.6819 178.852 83.1593 174.884 84.641 170.162C86.1228 165.44 88.1943 161.354 90.8557 157.904ZM95.0852 169.217C96.0117 166.365 96.568 163.943 96.754 161.951C96.985 159.947 96.7923 158.984 96.1759 159.061C95.7397 159.089 95.208 159.585 94.5807 160.547C93.9535 161.51 93.2752 162.795 92.5457 164.403C91.8613 165.998 91.219 167.737 90.6188 169.62C89.7373 172.46 89.181 174.882 88.95 176.886C88.764 178.878 88.9792 179.835 89.5957 179.758C89.9868 179.742 90.4959 179.252 91.1232 178.29C91.7955 177.315 92.4739 176.03 93.1582 174.434C93.8426 172.838 94.4849 171.099 95.0852 169.217ZM121.226 146.456C123.164 145.937 124.497 146.242 125.224 147.371C125.997 148.488 126.132 149.953 125.629 151.764L125.384 152.492C125.348 152.723 125.293 152.936 125.218 153.132C125.144 153.329 125.066 153.548 124.985 153.791C124.955 153.975 124.933 154.114 124.919 154.206L124.818 154.431C124.811 154.477 124.804 154.523 124.796 154.57L124.652 155.072L124.552 155.297L117.289 179.488C117.2 179.776 117.08 179.853 116.929 179.717L112.21 176.81C112.179 176.73 112.167 176.667 112.175 176.621L118.461 155.738C118.564 155.357 118.525 155.058 118.343 154.842C118.169 154.58 117.857 154.509 117.406 154.63C116.459 154.884 114.702 156.988 112.133 160.942L111.711 162.379L106.326 180.439L105.659 182.604C105.57 182.893 105.428 182.975 105.231 182.851L104.937 182.665L103.692 181.939L100.58 179.927C100.504 179.858 100.47 179.801 100.477 179.755L108.829 151.963C108.843 151.871 108.896 151.812 108.986 151.788L116.037 146.92C116.09 146.862 116.154 146.866 116.229 146.935C116.312 146.956 116.324 147.02 116.264 147.124L115.309 150.293C117.27 148.267 119.242 146.988 121.226 146.456ZM157.435 113.318C157.533 113.248 157.596 113.253 157.627 113.333C157.71 113.355 157.744 113.412 157.729 113.504L139.547 173.524C139.458 173.812 139.338 173.889 139.187 173.753L134.468 170.846C134.43 170.812 134.419 170.749 134.433 170.657L134.556 170.293C132.015 173.799 129.82 175.799 127.972 176.294C126.214 176.765 124.953 176.419 124.187 175.256C123.429 174.047 123.225 172.336 123.576 170.124C123.875 168.234 124.443 165.875 125.279 163.047C126.123 160.172 127.128 157.233 128.295 154.228C129.506 151.211 130.878 148.549 132.409 146.24C133.985 143.92 135.494 142.567 136.936 142.18C137.793 141.951 138.666 142.026 139.555 142.406C140.445 142.785 141.052 143.174 141.378 143.572C141.755 143.913 142.065 144.271 142.308 144.647L150.227 118.361C150.279 118.303 150.331 118.245 150.384 118.186L157.435 113.318ZM137.843 159.349L140.297 151.211C140.228 150.832 140.117 150.442 139.964 150.042C139.857 149.629 139.558 149.202 139.067 148.76C138.628 148.259 138.138 148.082 137.597 148.227C136.561 148.504 134.991 151.33 132.888 156.705C130.547 162.761 129.413 166.926 129.484 169.202C129.533 169.984 129.783 170.314 130.233 170.193C130.819 170.036 131.483 169.528 132.223 168.667C132.964 167.807 133.715 166.745 134.476 165.482C135.237 164.218 135.864 163.124 136.356 162.197C136.9 161.213 137.396 160.263 137.843 159.349Z" fill="white"/>
</svg>
